<?xml version="1.0" encoding="UTF-8" standalone="no"?>
<svg
   version="1.1"
   width="512"
   height="512"
   viewBox="0 0 512 512"
   xml:space="preserve"
   id="svg24"
   sodipodi:docname="github-logo-inkscape.svg"
   inkscape:version="1.2.1 (0f2f062aeb, 2022-09-21, custom)"
   inkscape:export-filename="../f5d7777a/proofpoint-github.png"
   inkscape:export-xdpi="96"
   inkscape:export-ydpi="96"
   xmlns:inkscape="http://www.inkscape.org/namespaces/inkscape"
   xmlns:sodipodi="http://sodipodi.sourceforge.net/DTD/sodipodi-0.dtd"
   xmlns="http://www.w3.org/2000/svg"
   xmlns:svg="http://www.w3.org/2000/svg"><sodipodi:namedview
   id="namedview26"
   pagecolor="#505050"
   bordercolor="#eeeeee"
   borderopacity="1"
   inkscape:showpageshadow="0"
   inkscape:pageopacity="0"
   inkscape:pagecheckerboard="0"
   inkscape:deskcolor="#505050"
   showgrid="false"
   inkscape:zoom="1.3037281"
   inkscape:cx="178.71825"
   inkscape:cy="256.5719"
   inkscape:window-width="1918"
   inkscape:window-height="920"
   inkscape:window-x="0"
   inkscape:window-y="0"
   inkscape:window-maximized="1"
   inkscape:current-layer="svg24" />

<defs
   id="defs18"><rect
   x="-3157.2676"
   y="-745.65009"
   width="1705.925"
   height="355.9024"
   id="rect3559" /><linearGradient
   id="linearGradient2371"
   inkscape:swatch="solid"><stop
     style="stop-color:#000000;stop-opacity:1;"
     offset="0"
     id="stop2369" /></linearGradient>

	
</defs>

<style
   type="text/css"
   id="style3324">
	.st0{fill:none;}
	.st1{font-family:'Swiss721BT-Roman';}
	.st2{font-size:40px;}
	.st3{letter-spacing:-1;}
</style><path
   id="circle"
   style="display:inline;fill:#63aee6;fill-opacity:1;stroke:#63aee6;stroke-width:0.487805;stroke-opacity:1"
   d="M 256,7.5347788 A 249.75609,249.7561 0 0 0 6.2441403,257.29064 249.75609,249.7561 0 0 0 220.14648,504.15587 c -0.0378,-14.96689 -0.0839,-32.25844 -0.11132,-37.79492 -39.11166,8.62409 -47.36328,-16.81836 -47.36328,-16.81836 -6.39415,-16.47558 -15.61133,-20.85742 -15.61133,-20.85742 -12.75818,-8.84645 0.96093,-8.66601 0.96093,-8.66601 14.11643,1.00394 21.55274,14.68945 21.55274,14.68945 12.53823,21.79014 32.88886,15.48981 40.91211,11.84961 1.26196,-9.2103 4.90393,-15.50151 8.92773,-19.06055 -31.22665,-3.60417 -64.05468,-15.8271 -64.05468,-70.44531 -10e-6,-15.56178 5.49297,-28.27697 14.48632,-38.25977 -1.46068,-3.59211 -6.27563,-18.08967 1.35938,-37.72461 0,0 0.73899,-0.23974 2.26562,-0.31054 4.57985,-0.21262 16.25911,1.09069 36.40821,14.92187 11.21604,-3.15924 23.24151,-4.74297 35.18945,-4.79687 11.94794,0.0541 23.98359,1.63763 35.2207,4.79687 26.83515,-18.44152 38.62305,-14.61133 38.62305,-14.61133 7.65311,19.63494 2.84154,34.1325 1.38086,37.72461 9.01438,9.9828 14.4668,22.69799 14.4668,38.25977 0,54.75051 -32.88741,66.802 -64.19532,70.33398 5.04175,4.42476 9.53516,13.09617 9.53516,26.39453 0,10.02951 -0.0436,32.60688 -0.0859,50.64844 A 249.75609,249.7561 0 0 0 505.75586,257.29064 249.75609,249.7561 0 0 0 256,7.5347788 Z" /><g
   id="proofpoint_white"
   transform="matrix(0.71254334,0,0,0.71115581,62.822308,106.92249)"
   style="display:inline;fill:#ffffff;fill-opacity:1"
   sodipodi:insensitive="true">
	<path
   d="M 510.91,89.3 V 78.22 h -3.83 c -4.16,0 -5.14,-0.62 -5.14,-3.52 V 44.27 h 8.98 V 33.92 h -8.98 V 18.91 H 486.5 v 15.01 h -7.66 v 10.35 h 7.66 v 29.71 c 0,11.49 2.74,15.63 15.54,15.63 1.64,0 4.6,-0.21 8.87,-0.31"
   id="path3326"
   style="fill:#ffffff;fill-opacity:1" />
	<path
   d="m 422.43,88.88 h 15.54 v -32.6 c 0,-7.25 4.71,-11.59 11.93,-11.59 6.67,0 8.97,3.52 8.97,10.97 v 33.22 h 15.54 V 51.41 c 0,-12.63 -6.35,-18.94 -19.15,-18.94 -7.34,0 -13.24,2.69 -17.62,7.97 v -6.52 h -15.21 z"
   id="path3328"
   style="fill:#ffffff;fill-opacity:1" />
	<rect
   x="397.35999"
   y="14.46"
   width="15.54"
   height="13.35"
   id="rect3330"
   style="fill:#ffffff;fill-opacity:1" />
	<rect
   x="397.35999"
   y="33.919998"
   width="15.54"
   height="54.959999"
   id="rect3332"
   style="fill:#ffffff;fill-opacity:1" />
	<path
   d="m 348.22,61.35 c 0,-10.97 5.03,-16.98 13.68,-16.98 8.65,0 13.57,6 13.57,16.98 0,10.97 -4.92,17.08 -13.57,17.08 -8.64,0 -13.68,-6.11 -13.68,-17.08 m -15.76,0 c 0,18.32 11.16,29.39 29.44,29.39 18.28,0 29.44,-11.07 29.44,-29.39 0,-18.32 -11.16,-29.4 -29.44,-29.4 -18.27,0 -29.44,11.08 -29.44,29.4"
   id="path3334"
   style="fill:#ffffff;fill-opacity:1" />
	<path
   d="m 312.01,61.76 c 0,10.25 -4.92,16.25 -12.59,16.25 -8.21,0 -13.02,-5.8 -13.02,-16.25 0,-11.28 4.49,-17.08 12.7,-17.08 8.31,0.01 12.91,5.91 12.91,17.08 m -40.72,49.17 h 15.1 V 82.05 c 3.83,5.69 9.74,8.69 17.18,8.69 13.57,0 23.86,-11.49 23.86,-29.6 0,-17.6 -9.96,-29.09 -24.08,-29.09 -7.55,0 -12.8,2.9 -17.29,9.32 v -7.45 h -14.78 v 77.01 z"
   id="path3336"
   style="fill:#ffffff;fill-opacity:1" />
	<path
   d="m 239.74,88.88 h 15.21 V 44.27 h 9.63 V 33.92 h -9.74 v -3.83 c 0,-3.52 1.42,-4.14 5.69,-4.14 h 4.05 v -11.7 c -2.74,-0.21 -5.14,-0.31 -7.44,-0.31 -11.93,0 -17.4,4.56 -17.4,14.91 v 5.07 h -8.32 v 10.35 h 8.32 z"
   id="path3338"
   style="fill:#ffffff;fill-opacity:1" />
	<path
   d="m 187.33,61.35 c 0,-10.97 5.03,-16.98 13.68,-16.98 8.65,0 13.57,6 13.57,16.98 0,10.97 -4.92,17.08 -13.57,17.08 -8.65,0 -13.68,-6.11 -13.68,-17.08 m -15.77,0 c 0,18.32 11.16,29.39 29.44,29.39 18.28,0 29.44,-11.07 29.44,-29.39 0,-18.32 -11.16,-29.4 -29.44,-29.4 -18.27,0 -29.44,11.08 -29.44,29.4"
   id="path3340"
   style="fill:#ffffff;fill-opacity:1" />
	<path
   d="m 124.9,61.35 c 0,-10.97 5.03,-16.98 13.68,-16.98 8.65,0 13.57,6 13.57,16.98 0,10.97 -4.92,17.08 -13.57,17.08 -8.64,0 -13.68,-6.11 -13.68,-17.08 m -15.76,0 c 0,18.32 11.16,29.39 29.44,29.39 18.28,0 29.44,-11.07 29.44,-29.39 0,-18.32 -11.16,-29.4 -29.44,-29.4 -18.28,0 -29.44,11.08 -29.44,29.4"
   id="path3342"
   style="fill:#ffffff;fill-opacity:1" />
	<path
   d="M 73.9,88.88 H 89.44 V 59.8 c 0,-8.28 4.38,-12.42 12.8,-12.42 h 5.14 v -14.9 c -0.77,-0.1 -1.53,-0.1 -2.3,-0.1 -7.44,0 -12.7,3.41 -16.75,10.97 V 33.93 H 73.9 Z"
   id="path3344"
   style="fill:#ffffff;fill-opacity:1" />
	<path
   d="m 52.23,61.76 c 0,10.25 -4.92,16.25 -12.59,16.25 -8.21,0 -13.02,-5.8 -13.02,-16.25 0,-11.28 4.49,-17.08 12.7,-17.08 8.32,0.01 12.91,5.91 12.91,17.08 m -40.71,49.17 h 15.1 V 82.05 c 3.83,5.69 9.74,8.69 17.18,8.69 13.57,0 23.86,-11.49 23.86,-29.6 0,-17.6 -9.96,-29.09 -24.08,-29.09 -7.55,0 -12.8,2.9 -17.29,9.32 V 33.92 H 11.52 Z"
   id="path3346"
   style="fill:#ffffff;fill-opacity:1" />
	<g
   id="g3350"
   style="fill:#ffffff;fill-opacity:1">
		<path
   d="m 530.7,84.34 c 0,3.35 -2.63,5.98 -6.05,5.98 -3.38,0 -6.08,-2.63 -6.08,-5.98 0,-3.28 2.7,-5.9 6.08,-5.9 3.42,0 6.05,2.63 6.05,5.9 z m -10.62,0 c 0,2.63 1.94,4.72 4.61,4.72 2.59,0 4.5,-2.09 4.5,-4.68 0,-2.63 -1.91,-4.75 -4.54,-4.75 -2.63,0 -4.57,2.12 -4.57,4.71 z m 3.63,3.1 h -1.37 v -5.9 c 0.54,-0.11 1.3,-0.18 2.27,-0.18 1.12,0 1.62,0.18 2.05,0.43 0.32,0.25 0.58,0.72 0.58,1.3 0,0.65 -0.5,1.15 -1.22,1.37 v 0.07 c 0.58,0.22 0.9,0.65 1.08,1.44 0.18,0.9 0.29,1.26 0.43,1.48 h -1.48 c -0.18,-0.22 -0.29,-0.76 -0.47,-1.44 -0.11,-0.65 -0.47,-0.94 -1.22,-0.94 h -0.65 z m 0.04,-3.35 h 0.65 c 0.76,0 1.37,-0.25 1.37,-0.86 0,-0.54 -0.4,-0.9 -1.26,-0.9 -0.36,0 -0.61,0.04 -0.76,0.07 z"
   id="path3348"
   style="fill:#ffffff;fill-opacity:1" />
	</g>
</g><path
   id="black_cat"
   style="display:none;fill:#000000;fill-opacity:1;stroke-width:1.05781"
   d="m 183.47054,279.46654 c -1.52663,0.0708 -2.26454,0.31165 -2.26454,0.31165 -7.63502,19.63496 -2.82151,34.13226 -1.36083,37.72438 -8.99336,9.98281 -14.48677,22.69711 -14.48677,38.2589 0,54.61827 32.82946,66.84136 64.05614,70.44553 -4.02381,3.55904 -7.66595,9.85103 -8.92791,19.06134 -8.02326,3.64021 -28.37409,9.94053 -40.91233,-11.84963 0,0 -7.43693,-13.68579 -21.55337,-14.68974 0,0 -13.7177,-0.18166 -0.95951,8.6648 0,0 9.21551,4.38354 15.60966,20.85914 0,0 8.25317,25.44188 47.36487,16.81778 0.0283,5.71616 0.0752,23.72342 0.11371,39.0205 a 529.42361,528.39266 0 0 0 33.73209,2.40876 529.42361,528.39266 0 0 0 36.12902,-2.58004 c 0.0429,-18.17527 0.0889,-41.24528 0.0889,-51.4295 0,-13.29838 -4.49405,-21.97014 -9.5358,-26.3949 31.30794,-3.53199 64.19667,-15.58347 64.19667,-70.33404 0,-15.56179 -5.45365,-28.27609 -14.46804,-38.2589 1.46068,-3.59212 6.27365,-18.08942 -1.37947,-37.72438 0,0 -11.7879,-3.83022 -38.62307,14.61132 -11.23712,-3.15925 -23.27321,-4.74275 -35.22116,-4.79685 -11.94795,0.0539 -23.9741,1.6376 -35.19015,4.79685 -20.14912,-13.8312 -31.82829,-15.13559 -36.40814,-14.92297 z"
   sodipodi:insensitive="true" /><g
   aria-label="Community"
   transform="scale(1.0009751,0.99902588)"
   id="community_white"
   style="font-weight:bold;font-size:51.5707px;font-family:'Bebas Neue';-inkscape-font-specification:'Bebas Neue Bold';letter-spacing:10.0195px;word-spacing:0px;display:inline;fill:#ffffff;stroke:#63aee6;stroke-width:0.386782"
   sodipodi:insensitive="true"><path
     d="m 134.50057,228.7235 v 5.15707 c 0,2.57854 -1.13456,3.50681 -2.93953,3.50681 -1.80498,0 -2.93953,-0.92827 -2.93953,-3.50681 v -19.49372 c 0,-2.57854 1.13455,-3.55838 2.93953,-3.55838 1.80497,0 2.93953,0.97984 2.93953,3.55838 v 3.8678 h 5.36335 v -3.50681 c 0,-5.77592 -2.88796,-9.07644 -8.4576,-9.07644 -5.56963,0 -8.45759,3.30052 -8.45759,9.07644 v 18.77174 c 0,5.77592 2.88796,9.07644 8.45759,9.07644 5.56964,0 8.4576,-3.30052 8.4576,-9.07644 v -4.79608 z"
     id="path827" /><path
     d="m 158.54728,214.38685 c 0,-2.57854 1.13455,-3.55838 2.93953,-3.55838 1.80497,0 2.93953,0.97984 2.93953,3.55838 v 19.49372 c 0,2.57854 -1.13456,3.55838 -2.93953,3.55838 -1.80498,0 -2.93953,-0.97984 -2.93953,-3.55838 z m -5.67278,19.13273 c 0,5.77592 3.04267,9.07644 8.61231,9.07644 5.56963,0 8.61231,-3.30052 8.61231,-9.07644 v -18.77174 c 0,-5.77592 -3.04268,-9.07644 -8.61231,-9.07644 -5.56964,0 -8.61231,3.30052 -8.61231,9.07644 z"
     id="path829" /><path
     d="m 191.61888,206.08397 h -7.89032 v 36.09949 h 4.95079 v -25.5275 l 4.2288,25.5275 h 5.36335 l 3.91937,-25.8885 v 25.8885 h 5.36336 v -36.09949 h -7.89032 l -3.8678,25.63063 z"
     id="path831" /><path
     d="m 229.53805,206.08397 h -7.89032 v 36.09949 h 4.95079 v -25.5275 l 4.2288,25.5275 h 5.36335 l 3.91937,-25.8885 v 25.8885 h 5.36336 v -36.09949 h -7.89032 l -3.8678,25.63063 z"
     id="path833" /><path
     d="m 259.36062,206.08397 v 27.48718 c 0,5.77592 2.88796,9.07644 8.4576,9.07644 5.56963,0 8.45759,-3.30052 8.45759,-9.07644 v -27.48718 h -5.36335 v 27.84817 c 0,2.57854 -1.13455,3.50681 -2.93953,3.50681 -1.80497,0 -2.93953,-0.92827 -2.93953,-3.50681 v -27.84817 z"
     id="path835" /><path
     d="m 302.28216,242.18346 h 5.82749 v -36.09949 h -5.05393 v 21.60812 l -5.82749,-21.60812 h -7.11675 v 36.09949 h 5.1055 v -26.14635 z"
     id="path837" /><path
     d="m 322.20315,242.18346 h 5.67278 v -36.09949 h -5.67278 z"
     id="path839" /><path
     d="m 340.37074,211.24104 h 5.93063 v 30.94242 h 5.67278 v -30.94242 h 5.93063 v -5.15707 h -17.53404 z"
     id="path841" /><path
     d="m 375.7114,242.18346 h 5.67278 v -11.96441 l 7.16833,-24.13508 h -5.41493 l -4.33194,16.45105 -4.33193,-16.45105 h -5.93064 l 7.16833,24.13508 z"
     id="path843" /></g><g
   id="proofpoint_black"
   transform="matrix(0.71254334,0,0,0.71115581,62.822308,106.92249)"
   style="display:none;fill:#000000;fill-opacity:1"
   sodipodi:insensitive="true">
	<path
   d="M 510.91,89.3 V 78.22 h -3.83 c -4.16,0 -5.14,-0.62 -5.14,-3.52 V 44.27 h 8.98 V 33.92 h -8.98 V 18.91 H 486.5 v 15.01 h -7.66 v 10.35 h 7.66 v 29.71 c 0,11.49 2.74,15.63 15.54,15.63 1.64,0 4.6,-0.21 8.87,-0.31"
   id="path2426"
   style="fill:#000000;fill-opacity:1" />
	<path
   d="m 422.43,88.88 h 15.54 v -32.6 c 0,-7.25 4.71,-11.59 11.93,-11.59 6.67,0 8.97,3.52 8.97,10.97 v 33.22 h 15.54 V 51.41 c 0,-12.63 -6.35,-18.94 -19.15,-18.94 -7.34,0 -13.24,2.69 -17.62,7.97 v -6.52 h -15.21 z"
   id="path2428"
   style="fill:#000000;fill-opacity:1" />
	<rect
   x="397.35999"
   y="14.46"
   width="15.54"
   height="13.35"
   id="rect2430"
   style="fill:#000000;fill-opacity:1" />
	<rect
   x="397.35999"
   y="33.919998"
   width="15.54"
   height="54.959999"
   id="rect2432"
   style="fill:#000000;fill-opacity:1" />
	<path
   d="m 348.22,61.35 c 0,-10.97 5.03,-16.98 13.68,-16.98 8.65,0 13.57,6 13.57,16.98 0,10.97 -4.92,17.08 -13.57,17.08 -8.64,0 -13.68,-6.11 -13.68,-17.08 m -15.76,0 c 0,18.32 11.16,29.39 29.44,29.39 18.28,0 29.44,-11.07 29.44,-29.39 0,-18.32 -11.16,-29.4 -29.44,-29.4 -18.27,0 -29.44,11.08 -29.44,29.4"
   id="path2434"
   style="fill:#000000;fill-opacity:1" />
	<path
   d="m 312.01,61.76 c 0,10.25 -4.92,16.25 -12.59,16.25 -8.21,0 -13.02,-5.8 -13.02,-16.25 0,-11.28 4.49,-17.08 12.7,-17.08 8.31,0.01 12.91,5.91 12.91,17.08 m -40.72,49.17 h 15.1 V 82.05 c 3.83,5.69 9.74,8.69 17.18,8.69 13.57,0 23.86,-11.49 23.86,-29.6 0,-17.6 -9.96,-29.09 -24.08,-29.09 -7.55,0 -12.8,2.9 -17.29,9.32 v -7.45 h -14.78 v 77.01 z"
   id="path2436"
   style="fill:#000000;fill-opacity:1" />
	<path
   d="m 239.74,88.88 h 15.21 V 44.27 h 9.63 V 33.92 h -9.74 v -3.83 c 0,-3.52 1.42,-4.14 5.69,-4.14 h 4.05 v -11.7 c -2.74,-0.21 -5.14,-0.31 -7.44,-0.31 -11.93,0 -17.4,4.56 -17.4,14.91 v 5.07 h -8.32 v 10.35 h 8.32 z"
   id="path2438"
   style="fill:#000000;fill-opacity:1" />
	<path
   d="m 187.33,61.35 c 0,-10.97 5.03,-16.98 13.68,-16.98 8.65,0 13.57,6 13.57,16.98 0,10.97 -4.92,17.08 -13.57,17.08 -8.65,0 -13.68,-6.11 -13.68,-17.08 m -15.77,0 c 0,18.32 11.16,29.39 29.44,29.39 18.28,0 29.44,-11.07 29.44,-29.39 0,-18.32 -11.16,-29.4 -29.44,-29.4 -18.27,0 -29.44,11.08 -29.44,29.4"
   id="path2440"
   style="fill:#000000;fill-opacity:1" />
	<path
   d="m 124.9,61.35 c 0,-10.97 5.03,-16.98 13.68,-16.98 8.65,0 13.57,6 13.57,16.98 0,10.97 -4.92,17.08 -13.57,17.08 -8.64,0 -13.68,-6.11 -13.68,-17.08 m -15.76,0 c 0,18.32 11.16,29.39 29.44,29.39 18.28,0 29.44,-11.07 29.44,-29.39 0,-18.32 -11.16,-29.4 -29.44,-29.4 -18.28,0 -29.44,11.08 -29.44,29.4"
   id="path2442"
   style="fill:#000000;fill-opacity:1" />
	<path
   d="M 73.9,88.88 H 89.44 V 59.8 c 0,-8.28 4.38,-12.42 12.8,-12.42 h 5.14 v -14.9 c -0.77,-0.1 -1.53,-0.1 -2.3,-0.1 -7.44,0 -12.7,3.41 -16.75,10.97 V 33.93 H 73.9 Z"
   id="path2444"
   style="fill:#000000;fill-opacity:1" />
	<path
   d="m 52.23,61.76 c 0,10.25 -4.92,16.25 -12.59,16.25 -8.21,0 -13.02,-5.8 -13.02,-16.25 0,-11.28 4.49,-17.08 12.7,-17.08 8.32,0.01 12.91,5.91 12.91,17.08 m -40.71,49.17 h 15.1 V 82.05 c 3.83,5.69 9.74,8.69 17.18,8.69 13.57,0 23.86,-11.49 23.86,-29.6 0,-17.6 -9.96,-29.09 -24.08,-29.09 -7.55,0 -12.8,2.9 -17.29,9.32 V 33.92 H 11.52 Z"
   id="path2446"
   style="fill:#000000;fill-opacity:1" />
	<g
   id="g2450"
   style="fill:#000000;fill-opacity:1">
		<path
   d="m 530.7,84.34 c 0,3.35 -2.63,5.98 -6.05,5.98 -3.38,0 -6.08,-2.63 -6.08,-5.98 0,-3.28 2.7,-5.9 6.08,-5.9 3.42,0 6.05,2.63 6.05,5.9 z m -10.62,0 c 0,2.63 1.94,4.72 4.61,4.72 2.59,0 4.5,-2.09 4.5,-4.68 0,-2.63 -1.91,-4.75 -4.54,-4.75 -2.63,0 -4.57,2.12 -4.57,4.71 z m 3.63,3.1 h -1.37 v -5.9 c 0.54,-0.11 1.3,-0.18 2.27,-0.18 1.12,0 1.62,0.18 2.05,0.43 0.32,0.25 0.58,0.72 0.58,1.3 0,0.65 -0.5,1.15 -1.22,1.37 v 0.07 c 0.58,0.22 0.9,0.65 1.08,1.44 0.18,0.9 0.29,1.26 0.43,1.48 h -1.48 c -0.18,-0.22 -0.29,-0.76 -0.47,-1.44 -0.11,-0.65 -0.47,-0.94 -1.22,-0.94 h -0.65 z m 0.04,-3.35 h 0.65 c 0.76,0 1.37,-0.25 1.37,-0.86 0,-0.54 -0.4,-0.9 -1.26,-0.9 -0.36,0 -0.61,0.04 -0.76,0.07 z"
   id="path2448"
   style="fill:#000000;fill-opacity:1" />
	</g>
</g><g
   aria-label="Community"
   transform="scale(1.0009751,0.99902588)"
   id="community_black"
   style="font-weight:bold;font-size:51.5707px;font-family:'Bebas Neue';-inkscape-font-specification:'Bebas Neue Bold';letter-spacing:10.0195px;word-spacing:0px;display:none;fill:#000000;fill-opacity:1;stroke:#63aee6;stroke-width:0.386782"
   sodipodi:insensitive="true"><path
     d="m 134.50057,228.7235 v 5.15707 c 0,2.57854 -1.13456,3.50681 -2.93953,3.50681 -1.80498,0 -2.93953,-0.92827 -2.93953,-3.50681 v -19.49372 c 0,-2.57854 1.13455,-3.55838 2.93953,-3.55838 1.80497,0 2.93953,0.97984 2.93953,3.55838 v 3.8678 h 5.36335 v -3.50681 c 0,-5.77592 -2.88796,-9.07644 -8.4576,-9.07644 -5.56963,0 -8.45759,3.30052 -8.45759,9.07644 v 18.77174 c 0,5.77592 2.88796,9.07644 8.45759,9.07644 5.56964,0 8.4576,-3.30052 8.4576,-9.07644 v -4.79608 z"
     id="path2454"
     style="fill:#000000;fill-opacity:1" /><path
     d="m 158.54728,214.38685 c 0,-2.57854 1.13455,-3.55838 2.93953,-3.55838 1.80497,0 2.93953,0.97984 2.93953,3.55838 v 19.49372 c 0,2.57854 -1.13456,3.55838 -2.93953,3.55838 -1.80498,0 -2.93953,-0.97984 -2.93953,-3.55838 z m -5.67278,19.13273 c 0,5.77592 3.04267,9.07644 8.61231,9.07644 5.56963,0 8.61231,-3.30052 8.61231,-9.07644 v -18.77174 c 0,-5.77592 -3.04268,-9.07644 -8.61231,-9.07644 -5.56964,0 -8.61231,3.30052 -8.61231,9.07644 z"
     id="path2456"
     style="fill:#000000;fill-opacity:1" /><path
     d="m 191.61888,206.08397 h -7.89032 v 36.09949 h 4.95079 v -25.5275 l 4.2288,25.5275 h 5.36335 l 3.91937,-25.8885 v 25.8885 h 5.36336 v -36.09949 h -7.89032 l -3.8678,25.63063 z"
     id="path2458"
     style="fill:#000000;fill-opacity:1" /><path
     d="m 229.53805,206.08397 h -7.89032 v 36.09949 h 4.95079 v -25.5275 l 4.2288,25.5275 h 5.36335 l 3.91937,-25.8885 v 25.8885 h 5.36336 v -36.09949 h -7.89032 l -3.8678,25.63063 z"
     id="path2460"
     style="fill:#000000;fill-opacity:1" /><path
     d="m 259.36062,206.08397 v 27.48718 c 0,5.77592 2.88796,9.07644 8.4576,9.07644 5.56963,0 8.45759,-3.30052 8.45759,-9.07644 v -27.48718 h -5.36335 v 27.84817 c 0,2.57854 -1.13455,3.50681 -2.93953,3.50681 -1.80497,0 -2.93953,-0.92827 -2.93953,-3.50681 v -27.84817 z"
     id="path2462"
     style="fill:#000000;fill-opacity:1" /><path
     d="m 302.28216,242.18346 h 5.82749 v -36.09949 h -5.05393 v 21.60812 l -5.82749,-21.60812 h -7.11675 v 36.09949 h 5.1055 v -26.14635 z"
     id="path2464"
     style="fill:#000000;fill-opacity:1" /><path
     d="m 322.20315,242.18346 h 5.67278 v -36.09949 h -5.67278 z"
     id="path2466"
     style="fill:#000000;fill-opacity:1" /><path
     d="m 340.37074,211.24104 h 5.93063 v 30.94242 h 5.67278 v -30.94242 h 5.93063 v -5.15707 h -17.53404 z"
     id="path2468"
     style="fill:#000000;fill-opacity:1" /><path
     d="m 375.7114,242.18346 h 5.67278 v -11.96441 l 7.16833,-24.13508 h -5.41493 l -4.33194,16.45105 -4.33193,-16.45105 h -5.93064 l 7.16833,24.13508 z"
     id="path2470"
     style="fill:#000000;fill-opacity:1" /></g><path
   id="white_cat"
   style="display:none;fill:#ffffff;fill-opacity:1;stroke-width:1.05781"
   d="m 183.47054,279.46654 c -1.52663,0.0708 -2.26454,0.31165 -2.26454,0.31165 -7.63502,19.63496 -2.82151,34.13226 -1.36083,37.72438 -8.99336,9.98281 -14.48677,22.69711 -14.48677,38.2589 0,54.61827 32.82946,66.84136 64.05614,70.44553 -4.02381,3.55904 -7.66595,9.85103 -8.92791,19.06134 -8.02326,3.64021 -28.37409,9.94053 -40.91233,-11.84963 0,0 -7.43693,-13.68579 -21.55337,-14.68974 0,0 -13.7177,-0.18166 -0.95951,8.6648 0,0 9.21551,4.38354 15.60966,20.85914 0,0 8.25317,25.44188 47.36487,16.81778 0.0283,5.71616 0.0752,23.72342 0.11371,39.0205 a 529.42361,528.39266 0 0 0 33.73209,2.40876 529.42361,528.39266 0 0 0 36.12902,-2.58004 c 0.0429,-18.17527 0.0889,-41.24528 0.0889,-51.4295 0,-13.29838 -4.49405,-21.97014 -9.5358,-26.3949 31.30794,-3.53199 64.19667,-15.58347 64.19667,-70.33404 0,-15.56179 -5.45365,-28.27609 -14.46804,-38.2589 1.46068,-3.59212 6.27365,-18.08942 -1.37947,-37.72438 0,0 -11.7879,-3.83022 -38.62307,14.61132 -11.23712,-3.15925 -23.27321,-4.74275 -35.22116,-4.79685 -11.94795,0.0539 -23.9741,1.6376 -35.19015,4.79685 -20.14912,-13.8312 -31.82829,-15.13559 -36.40814,-14.92297 z"
   sodipodi:insensitive="true" /></svg>
